<?xml version="1.0"?>
<svg version="1.1" xmlns="http://www.w3.org/2000/svg" width="200px" height="50px" style=""><path fill="#5003a8" d="M56.488,33.792l2.716-0.056q1.008,0,1.008,0.14q0,0.364-4.088,0.644q-2.604,5.096-2.604,6.944q0,1.288,0.812,1.288q0.308,0,0.77-0.378t0.56-0.378t0.098,0.14q-0.14,0.504-0.854,0.84t-1.204,0.336t-0.77-0.056q-0.672-0.252-0.672-1.624q0-2.828,2.156-7.196l-3.36,0.084q-3.752,3.668-7.532,6.44q-5.656,4.116-8.848,4.116q-0.196,0-0.392-0.028q-4.312-0.364-4.312-4.424q0-2.408,1.512-5.096q2.016-3.584,5.516-6.118t6.272-2.534t2.772,2.044q0,1.372-0.84,3.052t-1.708,2.128q-0.084,0.028-0.182,0.028t-0.098-0.056l0.924-1.512q0.952-1.484,0.952-2.604t-0.49-1.806t-1.554-0.686q-2.184,0-5.222,2.436t-4.62,5.992t-1.582,5.544q0,2.996,3.052,2.996q2.912,0,7.896-3.752q2.212-1.652,7.196-6.244q-0.98,0.056-1.82,0.196q-1.792,0.336-1.68-0.112q0.112-1.036,1.064-1.036q1.848,0.224,3.108,0.224q2.408-2.212,7.196-7.252q3.22-3.388,3.92-3.388q0.308,0,0.308,0.476t-0.252,1.484t-0.56,1.232q-0.644,0.448-1.204,1.218t-1.596,2.884t-1.764,3.43z M58.728,26.96l-7.168,6.72l1.652,0q0.588,0.028,1.456,0.028q0.812-1.596,4.06-6.748z M67.63676,41.968q-0.14,0.028-0.602,0.028t-0.924-0.364t-0.462-0.938t0.21-1.274t0.294-1.064q-3.22,3.752-5.04,3.752q-1.148,0-1.26-1.428l0-0.196q0-1.204,1.456-3.248q-0.812,0.728-1.652,1.68q-0.112,0.112-0.28,0.112q-0.112,0-0.112-0.14t0.252-0.476l3.864-4.536q0.728-0.84,1.484-0.84t0.756,0.504q0,0.196-0.168,0.364q-1.12,1.036-2.814,3.444t-1.694,3.556q0,0.504,0.336,0.504q1.176,0,3.416-2.324q0.784-0.784,2.912-3.458t2.8-2.674q1.008,0,1.008,0.784q0,0.28-1.176,1.624q-1.596,1.932-2.436,3.15t-0.84,1.974t0.42,0.756q0.196,0,0.448-0.112q1.932-0.84,4.62-3.92q0.168-0.196,0.336-0.196t0.168,0.182t-0.196,0.406q-1.204,1.4-2.828,2.814t-2.296,1.554z M78.08552,41.38q-0.812,0.476-2.002,0.476t-1.82-0.784t-1.078-2.492q-0.504,0.504-0.7,0.504q-0.14,0-0.14-0.196t0.14-0.336q0.924-1.148,3.136-3.304l3.528-3.304q1.512-1.428,1.792-1.428q0.896,0,0.896,0.672q0,0.336-0.266,0.658t-0.392,0.504t-0.266,0.35q-0.504,0.868-1.022,3.584t-0.798,3.78q2.324-0.028,4.788-3.024q0.28-0.28,0.42-0.28t0.14,0.182t-0.252,0.49q-1.624,1.904-3.024,2.66q-0.84,0.42-2.184,0.7z M74.30552,38.272q0,0.952,0.63,1.554t1.414,0.602t1.204-0.308q0.56-0.308,1.106-2.576t0.658-4.004l0.112-0.952q-1.54,1.148-3.29,2.968t-1.806,2.408q-0.028,0.168-0.028,0.308z M91.53028,32.784l4.032-0.056q0.084,0.056,0.084,0.084q0,0.252-3.486,0.7t-3.766,0.532q-0.532,0.476-1.96,2.842t-1.428,3.458q0,1.036,1.428,1.036q0.672,0,1.764-0.42t1.68-0.784q1.568-0.98,3.36-2.884q0.392-0.392,0.532-0.392q0.084,0,0.084,0.168t-0.42,0.672q-1.456,1.792-3.276,2.884q-2.184,1.344-4.172,1.344q-0.868,0-1.414-0.378t-0.546-1.526t1.008-3.15t1.54-2.982q-0.392,0.084-0.672,0.084q-0.812,0-0.812-0.644q0-0.476,0.672-0.672q0.084,0,0.252-0.028l1.624,0q0.504-0.644,1.148-1.484q0.784-1.008,1.064-1.008t0.7,0.224t0.42,0.532t-1.344,1.82q0.728,0.028,1.904,0.028z M100.64904,30.642q0.378,0.266,0.378,0.63t-0.35,0.63t-0.77,0.266t-0.77-0.308t-0.35-0.7q0-0.784,1.064-0.784q0.42,0,0.798,0.266z M94.78304,42.108q-1.428,0-1.428-1.848q0-1.512,1.652-4.186t2.66-2.702q0.28,0,0.63,0.224t0.35,0.448q-0.14,0.196-0.336,0.434t-0.42,0.518t-0.616,0.798t-0.756,0.994q-2.1,2.716-2.1,3.738t0.7,1.022q0.588,0,1.596-0.644q2.352-1.456,3.724-3.192q0.504-0.644,0.686-0.644t0.182,0.224t-0.644,0.896t-1.022,1.064t-0.518,0.518t-0.518,0.476t-0.574,0.49t-0.56,0.42t-0.644,0.406t-0.644,0.294q-0.588,0.252-1.4,0.252z M105.8478,32.952q0.756,0,0.756,0.588q0,0.168-0.084,0.336q-2.52,3.5-3.024,5.292q6.524-6.524,7.924-6.524q0.14-0.028,0.252-0.028q0.784,0,0.784,0.7q0,0.14-0.056,0.28t-1.12,1.512q-1.232,1.456-2.086,2.8t-0.854,2.24t0.392,0.896q1.232,0,4.284-3.388q0.056-0.056,0.196-0.252q0.42-0.504,0.504-0.504t0.084,0.28t-0.392,0.728q-3.472,3.948-4.928,3.948q-1.372,0-1.372-1.512t1.12-3.472l1.792-2.912q-1.904,1.4-3.388,3.066t-2.702,3.234t-1.414,1.568q-0.42,0-0.658-0.35t-0.238-0.868t0.364-1.386t0.924-2.1l-1.68,1.764q-0.616,0.616-0.77,0.616t-0.154-0.182t0.224-0.406q1.036-1.036,1.792-1.988q0.728-0.952,2.996-3.64q0.252-0.336,0.532-0.336z M136.65732,34.24q-1.4,0-2.604-0.224q0.392,1.232,1.652,5.572q0.392,1.26,1.232,2.548q1.148,1.652,2.128,1.652q1.176,0,1.96-2.38q0.14-0.56,0.294-0.56t0.224,0.322t0.07,0.434q0,0.7-0.784,1.792q-1.036,1.54-2.268,1.54t-2.268-1.232t-2.03-4.494t-0.994-4.158q0-0.14,0.028-0.224q-3.36,4.452-4.816,5.88q-3.248,3.164-6.636,3.164q-2.38,0-2.38-1.792q0-0.896,0.56-1.974t1.372-1.89t1.428-0.812q0.112,0,0.112,0.056q0,0.14-0.7,0.7t-1.344,1.582t-0.644,1.862q0,1.484,1.988,1.484q3.724,0,10.248-8.736q0.364-0.476,0.616-0.672l-0.448-0.168q-0.364,0.14-0.588,0.14q-0.588,0-0.588-0.476q0-0.644,0.868-0.84q0.112-0.028,0.196-0.028q0.504,0,1.176,0.504q2.464-2.744,2.52-2.8q2.044-2.1,2.758-2.1t0.714,0.616q0,0.28-0.126,0.532t-0.294,0.252q-0.168,0.056-0.168-0.168q0-0.112,0.168-0.336q0.028-0.392-0.252-0.392q-0.896,0-4.34,4.76q0.84,0.056,1.4,0.056q6.496,0,8.12-3.36q0.336-0.728,0.336-1.344q0-1.232-1.12-2.128q-1.792-1.456-5.824-1.456t-8.232,2.044q-5.096,2.492-5.096,5.852q0,1.092,1.372,1.092t2.912-1.008t2.072-1.988q0.196-0.364,0.378-0.364t0.098,0.224q-0.532,1.568-2.366,2.674t-3.822,1.106t-1.988-1.26l0-0.196q0.42-3.668,4.494-6.23t9.814-2.562q5.348,0,7.588,1.848q1.344,1.12,1.344,2.632q0,0.644-0.308,1.4q-0.868,2.044-3.556,3.038t-5.656,0.994z M152.23008,33.428l0.392-0.084q0.308,0,0.588,0.252t0.28,0.392t-1.736,2.702t-1.736,3.57q0,0.084,0.028,0.168q0.14,0.644,0.616,0.644q1.456,0,5.32-4.816q0.084-0.112,0.196-0.112t0.112,0.21t-0.252,0.546q-3.584,4.788-5.46,4.788q-0.252,0-0.476-0.084q-1.232-0.476-1.232-1.848q0-0.476,0.112-0.952l-1.736,1.68q-1.652,1.456-2.394,1.456t-1.414-0.476q-0.756-0.56-0.756-1.484q0-2.044,2.856-4.886t5.236-2.842q0.924,0,1.232,0.644q0.084,0.224,0.14,0.378t0.084,0.154z M143.85808,40.316q0,1.008,0.7,1.008q1.624,0,4.424-3.556l2.968-4.088q-0.224-0.392-0.728-0.392q-1.708,0-4.536,2.646t-2.828,4.382z M162.21684,30.6q0.378,0.28,0.378,0.63t-0.35,0.616t-0.77,0.266t-0.77-0.294t-0.35-0.686q0-0.812,1.064-0.812q0.42,0,0.798,0.28z M160.88684,34.184q0,0.168-2.212,3.976q-2.156,4.116-3.332,5.74q-2.548,3.64-4.788,3.64q-0.84,0-1.554-0.546t-0.714-1.092t0.252-0.546q0.028,0,0.574,0.714t1.274,0.714q2.24,0,5.096-5.068q1.764-3.164,2.408-5.124q-0.336,0.392-1.162,1.148t-1.008,0.756t-0.182-0.084q0-0.252,0.448-0.644t1.204-1.484t0.896-1.204l0.924-0.98q0.56-0.532,1.218-0.532t0.658,0.616z M171.8676,33.428l0.392-0.084q0.308,0,0.588,0.252t0.28,0.392t-1.736,2.702t-1.736,3.57q0,0.084,0.028,0.168q0.14,0.644,0.616,0.644q1.456,0,5.32-4.816q0.084-0.112,0.196-0.112t0.112,0.21t-0.252,0.546q-3.584,4.788-5.46,4.788q-0.252,0-0.476-0.084q-1.232-0.476-1.232-1.848q0-0.476,0.112-0.952l-1.736,1.68q-1.652,1.456-2.394,1.456t-1.414-0.476q-0.756-0.56-0.756-1.484q0-2.044,2.856-4.886t5.236-2.842q0.924,0,1.232,0.644q0.084,0.224,0.14,0.378t0.084,0.154z M163.4956,40.316q0,1.008,0.7,1.008q1.624,0,4.424-3.556l2.968-4.088q-0.224-0.392-0.728-0.392q-1.708,0-4.536,2.646t-2.828,4.382z"/><path fill="#" d=""/></svg>
